<?xml version="1.0" encoding="UTF-8" standalone="no"?>
<!-- Created with Inkscape (http://www.inkscape.org/) -->

<svg
   xmlns:dc="http://purl.org/dc/elements/1.1/"
   xmlns:cc="http://creativecommons.org/ns#"
   xmlns:rdf="http://www.w3.org/1999/02/22-rdf-syntax-ns#"
   xmlns:svg="http://www.w3.org/2000/svg"
   xmlns="http://www.w3.org/2000/svg"
   xmlns:sodipodi="http://sodipodi.sourceforge.net/DTD/sodipodi-0.dtd"
   xmlns:inkscape="http://www.inkscape.org/namespaces/inkscape"
   id="svg3881"
   version="1.1"
   inkscape:version="0.48.2 r9819"
   width="1564.8477"
   height="482.75974"
   xml:space="preserve"
   sodipodi:docname="evidence.svg"><metadata
     id="metadata3887"><rdf:RDF><cc:Work
         rdf:about=""><dc:format>image/svg+xml</dc:format><dc:type
           rdf:resource="http://purl.org/dc/dcmitype/StillImage" /><dc:title></dc:title></cc:Work></rdf:RDF></metadata><defs
     id="defs3885"><marker
   inkscape:stockid="DotL"
   orient="auto"
   refY="0"
   refX="0"
   id="DotL"
   style="overflow:visible"><path
     id="path10061"
     d="m -2.5,-1 c 0,2.76 -2.24,5 -5,5 -2.76,0 -5,-2.24 -5,-5 0,-2.76 2.24,-5 5,-5 2.76,0 5,2.24 5,5 z"
     style="fill-rule:evenodd;stroke:#000000;stroke-width:1pt;marker-start:none;marker-end:none"
     transform="matrix(0.8,0,0,0.8,5.92,0.8)"
     inkscape:connector-curvature="0" /></marker><marker
   inkscape:stockid="Arrow2Lend"
   orient="auto"
   refY="0"
   refX="0"
   id="Arrow2Lend"
   style="overflow:visible"><path
     id="path10020"
     style="font-size:12px;fill-rule:evenodd;stroke-width:0.625;stroke-linejoin:round"
     d="M 8.7185878,4.0337352 -2.2072895,0.01601326 8.7185884,-4.0017078 c -1.7454984,2.3720609 -1.7354408,5.6174519 -6e-7,8.035443 z"
     transform="matrix(-1.1,0,0,-1.1,-1.1,0)"
     inkscape:connector-curvature="0" /></marker><marker
   inkscape:stockid="Arrow1Lend"
   orient="auto"
   refY="0"
   refX="0"
   id="Arrow1Lend"
   style="overflow:visible"><path
     id="path10002"
     d="M 0,0 5,-5 -12.5,0 5,5 0,0 z"
     style="fill-rule:evenodd;stroke:#000000;stroke-width:1pt;marker-start:none"
     transform="matrix(-0.8,0,0,-0.8,-10,0)"
     inkscape:connector-curvature="0" /></marker><clipPath
   clipPathUnits="userSpaceOnUse"
   id="clipPath3897"><path
     d="M 0,7799.99 0,0 l 10960,0 0,7799.99 -10960,0 z"
     id="path3899"
     inkscape:connector-curvature="0" /></clipPath><clipPath
   id="clipPath8758"
   clipPathUnits="userSpaceOnUse"><path
     id="path8760"
     d="m 0,1335.7 1510,0 0,-1330.00078 -1510,0 L 0,1335.7 z"
     inkscape:connector-curvature="0" /></clipPath>


















</defs><sodipodi:namedview
     pagecolor="#ffffff"
     bordercolor="#666666"
     borderopacity="1"
     objecttolerance="10"
     gridtolerance="10"
     guidetolerance="10"
     inkscape:pageopacity="0"
     inkscape:pageshadow="2"
     inkscape:window-width="2517"
     inkscape:window-height="1396"
     id="namedview3883"
     showgrid="false"
     showguides="true"
     inkscape:guide-bbox="true"
     inkscape:zoom="0.96820513"
     inkscape:cx="635.78253"
     inkscape:cy="128.90878"
     inkscape:window-x="264"
     inkscape:window-y="0"
     inkscape:window-maximized="0"
     inkscape:current-layer="g3893"
     fit-margin-top="10"
     fit-margin-left="10"
     fit-margin-right="10"
     fit-margin-bottom="10" /><g
     id="g3889"
     inkscape:groupmode="layer"
     inkscape:label="ink_ext_XXXXXX"
     transform="matrix(1.25,0,0,-1.25,-132.55573,892.7751)"><g
       id="g3891"
       transform="scale(0.1,0.1)"><g
         id="g3893"><rect
   style="fill:none;stroke:#000000;stroke-width:16;stroke-linecap:round;stroke-miterlimit:4;stroke-opacity:1;stroke-dasharray:none;stroke-dashoffset:0"
   id="rect6733"
   width="1193.7618"
   height="324.94077"
   x="12233.465"
   y="-4462.0049"
   transform="scale(1,-1)" /><rect
   transform="scale(1,-1)"
   y="-6398.645"
   x="8424.4453"
   height="1928.0645"
   width="2337.0479"
   id="rect9734"
   style="fill:none;stroke:#000000;stroke-width:8;stroke-linecap:round;stroke-miterlimit:4;stroke-opacity:1;stroke-dasharray:none;stroke-dashoffset:0" /><g
   transform="matrix(0.58113698,0,0,0.58113698,1197.7797,2101.4389)"
   id="g4007"><path
     inkscape:connector-curvature="0"
     d="m 2200.02,5426.88 0,155.31 -271.35,119.51 -271.33,-119.51 0,-155.31 271.33,-83.59 271.35,83.59"
     style="fill:#f9c58c;fill-opacity:1;fill-rule:nonzero;stroke:none"
     id="path3909" /><path
     inkscape:connector-curvature="0"
     d="m 2362.48,6165.77 c 0,0 72.87,434.49 -78.29,542.45 0,0 -109.3,118.76 -355.52,97.16 -246.25,21.6 -355.58,-97.16 -355.58,-97.16 -151.14,-107.96 -78.21,-542.45 -78.21,-542.45 -94.45,48.57 -89.05,-64.7 -89.05,-64.7 -8.12,-226.74 132.21,-264.51 132.21,-264.51 59.36,-353.39 390.63,-409.68 390.63,-409.68 0,0 331.24,56.29 390.62,409.68 0,0 140.3,37.77 132.21,264.51 0,0 5.4,113.27 -89.02,64.7"
     style="fill:#fcd0a4;fill-opacity:1;fill-rule:nonzero;stroke:none"
     id="path3911" /><path
     inkscape:connector-curvature="0"
     d="m 2200.02,5426.88 -271.35,-83.59 -271.33,83.59 -55.67,-83.59 c 0,0 9.1,-12.03 24.68,-30.06 39.67,-45.78 122.65,-131.41 214.22,-164.73 0,0 4.61,85.8 46.36,157.68 l 41.74,13.97 41.7,-13.97 c 41.75,-71.88 46.41,-157.68 46.41,-157.68 91.53,33.32 174.5,118.95 214.16,164.73 15.59,18.03 24.72,30.06 24.72,30.06 l -55.64,83.59"
     style="fill:#ffffff;fill-opacity:1;fill-rule:nonzero;stroke:none"
     id="path3913" /><path
     inkscape:connector-curvature="0"
     d="m 1934.41,6470 c 0,0 -122.58,-0.02 -230.76,24.02 0,0 -165.86,36.06 -177.87,-124.96 l 0,-209.14 c 0,0 -161.06,117.5 -81.74,337.57 0,0 40.22,90.28 -21.96,126.34 0,0 144.57,50.49 156.59,105.77 0,0 -31.26,69.7 -96.17,38.46 0,0 96.17,86.57 276.45,38.5 0,0 12.01,103.37 -60.1,115.37 0,0 427.86,62.5 689.88,-252.41 0,0 137.01,-288.43 -40.86,-509.6 l -19.23,237.96 c 0,0 -7.19,132.24 -156.25,98.58 0,0 -146.58,-30.67 -237.98,-26.46"
     style="fill:#3d3215;fill-opacity:1;fill-rule:nonzero;stroke:none"
     id="path3963" /><path
     inkscape:connector-curvature="0"
     d="m 1601.67,5343.29 c -53.08,-36.26 -209.36,-97.84 -381.65,-151.98 0,0 -229.461,-43.07 -324.168,-163.54 0,0 -130.172,-107.64 -130.172,-939.11 l 0,-0.38 1047.84,0 0,1092.27 c -97.63,42.96 -167.17,111.16 -211.85,162.74"
     style="fill:#3d491f;fill-opacity:1;fill-rule:nonzero;stroke:none"
     id="path3965" /><path
     inkscape:connector-curvature="0"
     d="m 2961.54,5027.77 c -94.7,120.47 -324.2,163.54 -324.2,163.54 -172.32,54.14 -328.59,115.72 -381.68,151.98 -46.89,-54.13 -102.96,-123.42 -206.73,-165.4 l 0,-1089.61 1042.76,0 0,0.38 c 30.39,584.36 -130.15,939.11 -130.15,939.11"
     style="fill:#3d491f;fill-opacity:1;fill-rule:nonzero;stroke:none"
     id="path3967" /><path
     inkscape:connector-curvature="0"
     d="m 2034.41,5172.19 c 0,0 -2.52,76.51 -54.12,165.42 l -51.6,17.21 -51.64,-17.21 c -51.65,-88.91 -34.44,-169.19 -34.44,-169.19 -10.09,3.67 -19.55,7.94 -29.09,12.13 l 0,-1092.27 235.41,0 0,1089.61 c -4.78,-1.94 -9.53,-3.89 -14.52,-5.7"
     style="fill:#c9cee9;fill-opacity:1;fill-rule:nonzero;stroke:none"
     id="path3969" /></g><g
   transform="matrix(0.58113698,0,0,0.58113698,3997.7797,2101.4389)"
   id="g3999"><path
     inkscape:connector-curvature="0"
     d="m 3893.72,4088.28 3154.53,0 0,3154.55 -3154.53,0 0,-3154.55 z"
     style="fill:#ffffff;fill-opacity:1;fill-rule:nonzero;stroke:none"
     id="path3915" /><path
     inkscape:connector-curvature="0"
     d="m 5751.4,5426.88 0,155.31 -271.36,119.51 -271.33,-119.51 0,-155.31 271.33,-83.59 271.36,83.59"
     style="fill:#f9c58c;fill-opacity:1;fill-rule:nonzero;stroke:none"
     id="path3917" /><path
     inkscape:connector-curvature="0"
     d="m 5913.86,6165.77 c 0,0 72.87,434.49 -78.29,542.45 0,0 -109.31,118.76 -355.53,97.16 -246.25,21.6 -355.57,-97.16 -355.57,-97.16 -151.14,-107.96 -78.22,-542.45 -78.22,-542.45 -94.44,48.57 -89.04,-64.7 -89.04,-64.7 -8.12,-226.74 132.21,-264.51 132.21,-264.51 59.35,-353.39 390.62,-409.68 390.62,-409.68 0,0 331.24,56.29 390.62,409.68 0,0 140.32,37.77 132.22,264.51 0,0 5.39,113.27 -89.02,64.7"
     style="fill:#fcd0a4;fill-opacity:1;fill-rule:nonzero;stroke:none"
     id="path3919" /><path
     inkscape:connector-curvature="0"
     d="m 5321.29,6857.69 c 0,0 -234.35,-4.52 -282.14,-182.01 0,0 -77.34,-109.21 -182.01,-61.41 0,0 68.25,-95.59 29.56,-132 0,0 -79.62,-65.99 -70.51,-168.39 l 56.88,27.31 c 0,0 27.3,-122.87 -75.09,-138.77 0,0 -91.01,-245.71 147.89,-343.57 l 47.78,18.2 -27.3,-95.58 c 0,0 136.5,-125.13 254.83,-111.48 0,0 -168.35,127.43 -145.62,523.33 0,0 22.76,332.19 273.04,459.59 0,0 168.35,9.12 268.47,-186.57 0,0 127.41,-300.35 218.43,-391.36 0,0 43.24,-201.18 -147.88,-406.02 0,0 365.17,-61.52 344.69,337.8 0,0 -21.61,79.59 119.46,136.5 0,0 22.77,34.12 -43.22,65.99 0,0 152.45,81.86 95.56,193.37 0,0 -54.6,-54.6 -95.56,-43.22 0,0 22.74,524.48 -571.11,575.67 0,0 -105.78,-85.35 -216.15,-77.38"
     style="fill:#4265b0;fill-opacity:1;fill-rule:nonzero;stroke:none"
     id="path3971" /><path
     inkscape:connector-curvature="0"
     d="m 5984.56,5261.82 c -82.22,31.37 -146.98,60.62 -177.52,81.47 l -55.64,83.59 -253.38,-78.05 -17.97,5.99 -17.98,-5.99 -253.36,78.05 -55.67,-83.59 c -34.22,-23.38 -111.43,-57.28 -208.07,-92.93 238.78,-140.75 622.84,-263.98 1039.59,11.46"
     style="fill:#efbed8;fill-opacity:1;fill-rule:nonzero;stroke:none"
     id="path3973" /><path
     inkscape:connector-curvature="0"
     d="m 6512.92,5027.77 c -94.7,120.47 -324.21,163.54 -324.21,163.54 -73.2,22.99 -143.42,47.33 -204.15,70.51 -416.75,-275.44 -800.81,-152.21 -1039.59,-11.46 -53.27,-19.64 -112.35,-39.82 -173.57,-59.05 0,0 -229.48,-43.07 -324.18,-163.54 0,0 -130.17,-107.64 -130.17,-939.11 l 0,-0.38 2326.01,0 0,0.38 c 30.4,584.36 -130.14,939.11 -130.14,939.11"
     style="fill:#dd5877;fill-opacity:1;fill-rule:nonzero;stroke:none"
     id="path3975" /></g><text
   transform="scale(1,-1)"
   sodipodi:linespacing="125%"
   id="text4077"
   y="-5528.9014"
   x="2197.9141"
   style="font-size:320px;font-style:normal;font-weight:normal;line-height:125%;letter-spacing:0px;word-spacing:0px;fill:#000000;fill-opacity:1;stroke:none;font-family:Sans"
   xml:space="preserve"><tspan
     style="font-weight:bold"
     y="-5528.9014"
     x="2197.9141"
     id="tspan4079"
     sodipodi:role="line">A</tspan></text>


<text
   xml:space="preserve"
   style="font-size:320px;font-style:normal;font-weight:normal;line-height:125%;letter-spacing:0px;word-spacing:0px;fill:#000000;fill-opacity:1;stroke:none;font-family:Sans"
   x="7045.9141"
   y="-5528.9014"
   id="text4081"
   sodipodi:linespacing="125%"
   transform="scale(1,-1)"><tspan
     sodipodi:role="line"
     id="tspan4083"
     x="7045.9141"
     y="-5528.9014"
     style="font-weight:bold">B</tspan></text>


<rect
   transform="scale(1,-1)"
   y="-6398.645"
   x="1144.4458"
   height="1928.0645"
   width="2337.0479"
   id="rect5676"
   style="fill:none;stroke:#000000;stroke-width:8;stroke-linecap:round;stroke-miterlimit:4;stroke-opacity:1;stroke-dasharray:none;stroke-dashoffset:0" /><rect
   style="fill:none;stroke:#000000;stroke-width:8;stroke-linecap:round;stroke-miterlimit:4;stroke-opacity:1;stroke-dasharray:none;stroke-dashoffset:0"
   id="rect5678"
   width="2337.0479"
   height="1928.0645"
   x="6008.4458"
   y="-6398.645"
   transform="scale(1,-1)" /><g
   id="g5680"
   transform="matrix(0.58113698,0,0,0.58113698,3629.7797,2101.4389)"><path
     id="path5682"
     style="fill:#f9c58c;fill-opacity:1;fill-rule:nonzero;stroke:none"
     d="m 2200.02,5426.88 0,155.31 -271.35,119.51 -271.33,-119.51 0,-155.31 271.33,-83.59 271.35,83.59"
     inkscape:connector-curvature="0" /><path
     id="path5684"
     style="fill:#fcd0a4;fill-opacity:1;fill-rule:nonzero;stroke:none"
     d="m 2362.48,6165.77 c 0,0 72.87,434.49 -78.29,542.45 0,0 -109.3,118.76 -355.52,97.16 -246.25,21.6 -355.58,-97.16 -355.58,-97.16 -151.14,-107.96 -78.21,-542.45 -78.21,-542.45 -94.45,48.57 -89.05,-64.7 -89.05,-64.7 -8.12,-226.74 132.21,-264.51 132.21,-264.51 59.36,-353.39 390.63,-409.68 390.63,-409.68 0,0 331.24,56.29 390.62,409.68 0,0 140.3,37.77 132.21,264.51 0,0 5.4,113.27 -89.02,64.7"
     inkscape:connector-curvature="0" /><path
     id="path5686"
     style="fill:#ffffff;fill-opacity:1;fill-rule:nonzero;stroke:none"
     d="m 2200.02,5426.88 -271.35,-83.59 -271.33,83.59 -55.67,-83.59 c 0,0 9.1,-12.03 24.68,-30.06 39.67,-45.78 122.65,-131.41 214.22,-164.73 0,0 4.61,85.8 46.36,157.68 l 41.74,13.97 41.7,-13.97 c 41.75,-71.88 46.41,-157.68 46.41,-157.68 91.53,33.32 174.5,118.95 214.16,164.73 15.59,18.03 24.72,30.06 24.72,30.06 l -55.64,83.59"
     inkscape:connector-curvature="0" /><path
     id="path5688"
     style="fill:#3d3215;fill-opacity:1;fill-rule:nonzero;stroke:none"
     d="m 1934.41,6470 c 0,0 -122.58,-0.02 -230.76,24.02 0,0 -165.86,36.06 -177.87,-124.96 l 0,-209.14 c 0,0 -161.06,117.5 -81.74,337.57 0,0 40.22,90.28 -21.96,126.34 0,0 144.57,50.49 156.59,105.77 0,0 -31.26,69.7 -96.17,38.46 0,0 96.17,86.57 276.45,38.5 0,0 12.01,103.37 -60.1,115.37 0,0 427.86,62.5 689.88,-252.41 0,0 137.01,-288.43 -40.86,-509.6 l -19.23,237.96 c 0,0 -7.19,132.24 -156.25,98.58 0,0 -146.58,-30.67 -237.98,-26.46"
     inkscape:connector-curvature="0" /><path
     id="path5690"
     style="fill:#3d491f;fill-opacity:1;fill-rule:nonzero;stroke:none"
     d="m 1601.67,5343.29 c -53.08,-36.26 -209.36,-97.84 -381.65,-151.98 0,0 -229.461,-43.07 -324.168,-163.54 0,0 -130.172,-107.64 -130.172,-939.11 l 0,-0.38 1047.84,0 0,1092.27 c -97.63,42.96 -167.17,111.16 -211.85,162.74"
     inkscape:connector-curvature="0" /><path
     id="path5692"
     style="fill:#3d491f;fill-opacity:1;fill-rule:nonzero;stroke:none"
     d="m 2961.54,5027.77 c -94.7,120.47 -324.2,163.54 -324.2,163.54 -172.32,54.14 -328.59,115.72 -381.68,151.98 -46.89,-54.13 -102.96,-123.42 -206.73,-165.4 l 0,-1089.61 1042.76,0 0,0.38 c 30.39,584.36 -130.15,939.11 -130.15,939.11"
     inkscape:connector-curvature="0" /><path
     id="path5694"
     style="fill:#c9cee9;fill-opacity:1;fill-rule:nonzero;stroke:none"
     d="m 2034.41,5172.19 c 0,0 -2.52,76.51 -54.12,165.42 l -51.6,17.21 -51.64,-17.21 c -51.65,-88.91 -34.44,-169.19 -34.44,-169.19 -10.09,3.67 -19.55,7.94 -29.09,12.13 l 0,-1092.27 235.41,0 0,1089.61 c -4.78,-1.94 -9.53,-3.89 -14.52,-5.7"
     inkscape:connector-curvature="0" /></g><text
   xml:space="preserve"
   style="font-size:320px;font-style:normal;font-weight:normal;line-height:125%;letter-spacing:0px;word-spacing:0px;fill:#000000;fill-opacity:1;stroke:none;font-family:Sans"
   x="4629.9141"
   y="-5528.9014"
   id="text5696"
   sodipodi:linespacing="125%"
   transform="scale(1,-1)"><tspan
     sodipodi:role="line"
     id="tspan5698"
     x="4629.9141"
     y="-5528.9014"
     style="font-weight:bold">A</tspan></text>


<rect
   style="fill:none;stroke:#000000;stroke-width:8;stroke-linecap:round;stroke-miterlimit:4;stroke-opacity:1;stroke-dasharray:none;stroke-dashoffset:0"
   id="rect5700"
   width="2337.0479"
   height="1928.0645"
   x="3576.4458"
   y="-6398.645"
   transform="scale(1,-1)" /><rect
   style="fill:#cccccc;stroke:#000000;stroke-width:14.62841892;stroke-linecap:round;stroke-miterlimit:4;stroke-opacity:1;stroke-dasharray:none;stroke-dashoffset:0"
   id="rect7682"
   width="1953.5404"
   height="324.94077"
   x="1328.05"
   y="-4891.5215"
   transform="scale(1,-1)" /><g
   transform="translate(4848.0932,5834.8737)"
   id="g9604"
   style="fill:#000000;fill-opacity:1"><path
     sodipodi:type="arc"
     style="fill:#ffffff;fill-opacity:1;stroke:none"
     id="path9602"
     sodipodi:cx="590.8349"
     sodipodi:cy="62.090687"
     sodipodi:rx="82.527"
     sodipodi:ry="63.53849"
     d="m 673.3619,62.090687 c 0,35.091339 -36.9486,63.538493 -82.527,63.538493 -45.5784,0 -82.527,-28.447154 -82.527,-63.538493 0,-35.091339 36.9486,-63.5384905 82.527,-63.5384905 45.5784,0 82.527,28.4471515 82.527,63.5384905 z"
     transform="matrix(8.2477876,0,0,-8,-4086.9439,1149.1263)" /><g
     id="g8754"
     style="fill:#000000;fill-opacity:1"
     transform="translate(37.182203,-108.37288)"><g
       clip-path="url(#clipPath8758)"
       id="g8756"
       style="fill:#000000;fill-opacity:1"><path
         id="path8762"
         style="fill:#000000;fill-opacity:1;fill-rule:nonzero;stroke:none"
         d="m 751.328,1227.97 c -296.879,0 -643.598,-121.53 -643.598,-464.072 0,-145.539 66.411,-265.968 192.04,-348.359 20.929,-13.668 29.64,-40 21.089,-63.469 -23.238,-63.711 -58.589,-140.941 -110.16,-210.32 143.281,35.98 245,103.559 310.352,161.25 12.308,10.898 28.91,15.551 45.078,12.66 59.101,-10.512 121.41,-15.82 185.199,-15.82 296.912,0 643.632,121.519 643.632,464.058 0,342.542 -346.72,464.072 -643.632,464.072 M 53.8281,10 C 30.7383,10 10.0391,24.8008 2.73047,46.9883 -4.92188,70.1484 3.94922,95.5781 24.3789,108.941 95.2695,155.352 158.52,240.43 204.73,350.859 70.5898,452.891 0,594.801 0,763.898 0,1105.9 301.949,1335.7 751.328,1335.7 c 449.412,0 751.372,-229.8 751.372,-571.802 0,-342.027 -301.96,-571.789 -751.372,-571.789 -61.098,0 -121.058,4.45 -178.707,13.321 C 469.961,120.5 301.559,24.1797 56.9492,10.0781 55.8984,10.0391 54.8789,10 53.8281,10"
         inkscape:connector-curvature="0" /></g></g></g><text
   transform="scale(1,-1)"
   sodipodi:linespacing="125%"
   id="text9539"
   y="-6575.2261"
   x="5308.9995"
   style="font-size:320px;font-style:normal;font-weight:normal;line-height:125%;letter-spacing:0px;word-spacing:0px;fill:#000000;fill-opacity:1;stroke:none;font-family:Sans"
   xml:space="preserve"><tspan
     id="tspan9543"
     style="font-size:240px;font-weight:normal;-inkscape-font-specification:Sans"
     y="-6575.2261"
     x="5308.9995"
     sodipodi:role="line">Hello</tspan><tspan
     id="tspan9594"
     style="font-size:240px;font-weight:normal;-inkscape-font-specification:Sans"
     y="-6275.2261"
     x="5308.9995"
     sodipodi:role="line">Mrs B</tspan></text>


<text
   transform="scale(1,-1)"
   sodipodi:linespacing="125%"
   id="text9567"
   y="-4640.5679"
   x="2057.7898"
   style="font-size:320px;font-style:normal;font-weight:normal;line-height:125%;letter-spacing:0px;word-spacing:0px;fill:#000000;fill-opacity:1;stroke:none;font-family:Sans"
   xml:space="preserve"><tspan
     style="font-size:240px"
     y="-4640.5679"
     x="2057.7898"
     id="tspan9569"
     sodipodi:role="line">Mr A</tspan></text>


<g
   transform="matrix(10,0,0,10,7312.0932,6650.8737)"
   inkscape:label="ink_ext_XXXXXX"
   id="g9610"
   style="fill:#000000;fill-opacity:1"><g
     transform="scale(0.1,0.1)"
     id="g9612"
     style="fill:#000000;fill-opacity:1"><g
       id="g9614"
       transform="translate(0,-832)"><path
         transform="matrix(8.2477876,0,0,-8,-4086.9439,1149.1263)"
         d="m 673.3619,62.090687 c 0,35.091339 -36.9486,63.538493 -82.527,63.538493 -45.5784,0 -82.527,-28.447154 -82.527,-63.538493 0,-35.091339 36.9486,-63.5384905 82.527,-63.5384905 45.5784,0 82.527,28.4471515 82.527,63.5384905 z"
         sodipodi:ry="63.53849"
         sodipodi:rx="82.527"
         sodipodi:cy="62.090687"
         sodipodi:cx="590.8349"
         id="path9616"
         style="fill:#ffffff;fill-opacity:1;stroke:none"
         sodipodi:type="arc" /><g
         transform="translate(37.182203,-108.37288)"
         style="fill:#000000;fill-opacity:1"
         id="g9618"><g
           style="fill:#000000;fill-opacity:1"
           id="g9620"
           clip-path="url(#clipPath8758)"><path
             inkscape:connector-curvature="0"
             d="m 751.328,1227.97 c -296.879,0 -643.598,-121.53 -643.598,-464.072 0,-145.539 66.411,-265.968 192.04,-348.359 20.929,-13.668 29.64,-40 21.089,-63.469 -23.238,-63.711 -58.589,-140.941 -110.16,-210.32 143.281,35.98 245,103.559 310.352,161.25 12.308,10.898 28.91,15.551 45.078,12.66 59.101,-10.512 121.41,-15.82 185.199,-15.82 296.912,0 643.632,121.519 643.632,464.058 0,342.542 -346.72,464.072 -643.632,464.072 M 53.8281,10 C 30.7383,10 10.0391,24.8008 2.73047,46.9883 -4.92188,70.1484 3.94922,95.5781 24.3789,108.941 95.2695,155.352 158.52,240.43 204.73,350.859 70.5898,452.891 0,594.801 0,763.898 0,1105.9 301.949,1335.7 751.328,1335.7 c 449.412,0 751.372,-229.8 751.372,-571.802 0,-342.027 -301.96,-571.789 -751.372,-571.789 -61.098,0 -121.058,4.45 -178.707,13.321 C 469.961,120.5 301.559,24.1797 56.9492,10.0781 55.8984,10.0391 54.8789,10 53.8281,10"
             style="fill:#000000;fill-opacity:1;fill-rule:nonzero;stroke:none"
             id="path9622" /></g></g></g></g></g><text
   xml:space="preserve"
   style="font-size:320px;font-style:normal;font-weight:normal;line-height:125%;letter-spacing:0px;word-spacing:0px;fill:#000000;fill-opacity:1;stroke:none;font-family:Sans"
   x="7820.9995"
   y="-6575.2261"
   id="text9647"
   sodipodi:linespacing="125%"
   transform="scale(1,-1)"><tspan
     sodipodi:role="line"
     x="7820.9995"
     y="-6575.2261"
     style="font-size:240px;font-weight:normal;-inkscape-font-specification:Sans"
     id="tspan9651">blah</tspan><tspan
     id="tspan9674"
     sodipodi:role="line"
     x="7820.9995"
     y="-6275.2261"
     style="font-size:240px;font-weight:normal;-inkscape-font-specification:Sans">blah</tspan></text>


<text
   transform="scale(1,-1)"
   sodipodi:linespacing="125%"
   id="text9684"
   y="-4290.2524"
   x="1158.3667"
   style="font-size:160px;font-style:normal;font-weight:normal;line-height:125%;letter-spacing:0px;word-spacing:0px;fill:#000000;fill-opacity:1;stroke:none;font-family:Sans"
   xml:space="preserve"><tspan
     style="font-size:160px"
     y="-4290.2524"
     x="1158.3667"
     id="tspan9686"
     sodipodi:role="line">shot #1</tspan></text>


<text
   xml:space="preserve"
   style="font-size:160px;font-style:normal;font-weight:normal;line-height:125%;letter-spacing:0px;word-spacing:0px;fill:#000000;fill-opacity:1;stroke:none;font-family:Sans"
   x="3590.3667"
   y="-4290.2524"
   id="text9692"
   sodipodi:linespacing="125%"
   transform="scale(1,-1)"><tspan
     sodipodi:role="line"
     id="tspan9694"
     x="3590.3667"
     y="-4290.2524"
     style="font-size:160px">shot #2</tspan></text>


<text
   transform="scale(1,-1)"
   sodipodi:linespacing="125%"
   id="text9696"
   y="-4290.2524"
   x="6054.3667"
   style="font-size:160px;font-style:normal;font-weight:normal;line-height:125%;letter-spacing:0px;word-spacing:0px;fill:#000000;fill-opacity:1;stroke:none;font-family:Sans"
   xml:space="preserve"><tspan
     style="font-size:160px"
     y="-4290.2524"
     x="6054.3667"
     id="tspan9698"
     sodipodi:role="line">shot #3</tspan></text>


<text
   xml:space="preserve"
   style="font-size:320px;font-style:normal;font-weight:normal;line-height:125%;letter-spacing:0px;word-spacing:0px;fill:#000000;fill-opacity:1;stroke:none;font-family:Sans"
   x="4633.4224"
   y="-3867.2766"
   id="text9704"
   sodipodi:linespacing="125%"
   transform="scale(1,-1)"><tspan
     sodipodi:role="line"
     id="tspan9706"
     x="4633.4224"
     y="-3867.2766">A</tspan></text>


<rect
   transform="scale(1,-1)"
   y="-4139.5215"
   x="3576.4458"
   height="324.94077"
   width="2337.0479"
   id="rect9712"
   style="fill:none;stroke:#000000;stroke-width:16;stroke-linecap:round;stroke-miterlimit:4;stroke-opacity:1;stroke-dasharray:none;stroke-dashoffset:0" /><g
   transform="matrix(0.36045617,0,0,0.36045617,8358.7506,3422.0897)"
   id="g9714"><path
     inkscape:connector-curvature="0"
     d="m 2200.02,5426.88 0,155.31 -271.35,119.51 -271.33,-119.51 0,-155.31 271.33,-83.59 271.35,83.59"
     style="fill:#f9c58c;fill-opacity:1;fill-rule:nonzero;stroke:none"
     id="path9716" /><path
     inkscape:connector-curvature="0"
     d="m 2362.48,6165.77 c 0,0 72.87,434.49 -78.29,542.45 0,0 -109.3,118.76 -355.52,97.16 -246.25,21.6 -355.58,-97.16 -355.58,-97.16 -151.14,-107.96 -78.21,-542.45 -78.21,-542.45 -94.45,48.57 -89.05,-64.7 -89.05,-64.7 -8.12,-226.74 132.21,-264.51 132.21,-264.51 59.36,-353.39 390.63,-409.68 390.63,-409.68 0,0 331.24,56.29 390.62,409.68 0,0 140.3,37.77 132.21,264.51 0,0 5.4,113.27 -89.02,64.7"
     style="fill:#fcd0a4;fill-opacity:1;fill-rule:nonzero;stroke:none"
     id="path9718" /><path
     inkscape:connector-curvature="0"
     d="m 2200.02,5426.88 -271.35,-83.59 -271.33,83.59 -55.67,-83.59 c 0,0 9.1,-12.03 24.68,-30.06 39.67,-45.78 122.65,-131.41 214.22,-164.73 0,0 4.61,85.8 46.36,157.68 l 41.74,13.97 41.7,-13.97 c 41.75,-71.88 46.41,-157.68 46.41,-157.68 91.53,33.32 174.5,118.95 214.16,164.73 15.59,18.03 24.72,30.06 24.72,30.06 l -55.64,83.59"
     style="fill:#ffffff;fill-opacity:1;fill-rule:nonzero;stroke:none"
     id="path9720" /><path
     inkscape:connector-curvature="0"
     d="m 1934.41,6470 c 0,0 -122.58,-0.02 -230.76,24.02 0,0 -165.86,36.06 -177.87,-124.96 l 0,-209.14 c 0,0 -161.06,117.5 -81.74,337.57 0,0 40.22,90.28 -21.96,126.34 0,0 144.57,50.49 156.59,105.77 0,0 -31.26,69.7 -96.17,38.46 0,0 96.17,86.57 276.45,38.5 0,0 12.01,103.37 -60.1,115.37 0,0 427.86,62.5 689.88,-252.41 0,0 137.01,-288.43 -40.86,-509.6 l -19.23,237.96 c 0,0 -7.19,132.24 -156.25,98.58 0,0 -146.58,-30.67 -237.98,-26.46"
     style="fill:#3d3215;fill-opacity:1;fill-rule:nonzero;stroke:none"
     id="path9722" /><path
     inkscape:connector-curvature="0"
     d="m 1601.67,5343.29 c -53.08,-36.26 -209.36,-97.84 -381.65,-151.98 0,0 -229.461,-43.07 -324.168,-163.54 0,0 -130.172,-107.64 -130.172,-939.11 l 0,-0.38 1047.84,0 0,1092.27 c -97.63,42.96 -167.17,111.16 -211.85,162.74"
     style="fill:#3d491f;fill-opacity:1;fill-rule:nonzero;stroke:none"
     id="path9724" /><path
     inkscape:connector-curvature="0"
     d="m 2961.54,5027.77 c -94.7,120.47 -324.2,163.54 -324.2,163.54 -172.32,54.14 -328.59,115.72 -381.68,151.98 -46.89,-54.13 -102.96,-123.42 -206.73,-165.4 l 0,-1089.61 1042.76,0 0,0.38 c 30.39,584.36 -130.15,939.11 -130.15,939.11"
     style="fill:#3d491f;fill-opacity:1;fill-rule:nonzero;stroke:none"
     id="path9726" /><path
     inkscape:connector-curvature="0"
     d="m 2034.41,5172.19 c 0,0 -2.52,76.51 -54.12,165.42 l -51.6,17.21 -51.64,-17.21 c -51.65,-88.91 -34.44,-169.19 -34.44,-169.19 -10.09,3.67 -19.55,7.94 -29.09,12.13 l 0,-1092.27 235.41,0 0,1089.61 c -4.78,-1.94 -9.53,-3.89 -14.52,-5.7"
     style="fill:#c9cee9;fill-opacity:1;fill-rule:nonzero;stroke:none"
     id="path9728" /></g><g
   id="g9736"
   transform="matrix(0.35332421,0,0,0.35332421,8180.8188,3448.8013)"><path
     id="path9738"
     style="fill:#ffffff;fill-opacity:1;fill-rule:nonzero;stroke:none"
     d="m 3893.72,4088.28 3154.53,0 0,3154.55 -3154.53,0 0,-3154.55 z"
     inkscape:connector-curvature="0" /><path
     id="path9740"
     style="fill:#f9c58c;fill-opacity:1;fill-rule:nonzero;stroke:none"
     d="m 5751.4,5426.88 0,155.31 -271.36,119.51 -271.33,-119.51 0,-155.31 271.33,-83.59 271.36,83.59"
     inkscape:connector-curvature="0" /><path
     id="path9742"
     style="fill:#fcd0a4;fill-opacity:1;fill-rule:nonzero;stroke:none"
     d="m 5913.86,6165.77 c 0,0 72.87,434.49 -78.29,542.45 0,0 -109.31,118.76 -355.53,97.16 -246.25,21.6 -355.57,-97.16 -355.57,-97.16 -151.14,-107.96 -78.22,-542.45 -78.22,-542.45 -94.44,48.57 -89.04,-64.7 -89.04,-64.7 -8.12,-226.74 132.21,-264.51 132.21,-264.51 59.35,-353.39 390.62,-409.68 390.62,-409.68 0,0 331.24,56.29 390.62,409.68 0,0 140.32,37.77 132.22,264.51 0,0 5.39,113.27 -89.02,64.7"
     inkscape:connector-curvature="0" /><path
     id="path9744"
     style="fill:#4265b0;fill-opacity:1;fill-rule:nonzero;stroke:none"
     d="m 5321.29,6857.69 c 0,0 -234.35,-4.52 -282.14,-182.01 0,0 -77.34,-109.21 -182.01,-61.41 0,0 68.25,-95.59 29.56,-132 0,0 -79.62,-65.99 -70.51,-168.39 l 56.88,27.31 c 0,0 27.3,-122.87 -75.09,-138.77 0,0 -91.01,-245.71 147.89,-343.57 l 47.78,18.2 -27.3,-95.58 c 0,0 136.5,-125.13 254.83,-111.48 0,0 -168.35,127.43 -145.62,523.33 0,0 22.76,332.19 273.04,459.59 0,0 168.35,9.12 268.47,-186.57 0,0 127.41,-300.35 218.43,-391.36 0,0 43.24,-201.18 -147.88,-406.02 0,0 365.17,-61.52 344.69,337.8 0,0 -21.61,79.59 119.46,136.5 0,0 22.77,34.12 -43.22,65.99 0,0 152.45,81.86 95.56,193.37 0,0 -54.6,-54.6 -95.56,-43.22 0,0 22.74,524.48 -571.11,575.67 0,0 -105.78,-85.35 -216.15,-77.38"
     inkscape:connector-curvature="0" /><path
     id="path9746"
     style="fill:#efbed8;fill-opacity:1;fill-rule:nonzero;stroke:none"
     d="m 5984.56,5261.82 c -82.22,31.37 -146.98,60.62 -177.52,81.47 l -55.64,83.59 -253.38,-78.05 -17.97,5.99 -17.98,-5.99 -253.36,78.05 -55.67,-83.59 c -34.22,-23.38 -111.43,-57.28 -208.07,-92.93 238.78,-140.75 622.84,-263.98 1039.59,11.46"
     inkscape:connector-curvature="0" /><path
     id="path9748"
     style="fill:#dd5877;fill-opacity:1;fill-rule:nonzero;stroke:none"
     d="m 6512.92,5027.77 c -94.7,120.47 -324.21,163.54 -324.21,163.54 -73.2,22.99 -143.42,47.33 -204.15,70.51 -416.75,-275.44 -800.81,-152.21 -1039.59,-11.46 -53.27,-19.64 -112.35,-39.82 -173.57,-59.05 0,0 -229.48,-43.07 -324.18,-163.54 0,0 -130.17,-107.64 -130.17,-939.11 l 0,-0.38 2326.01,0 0,0.38 c 30.4,584.36 -130.14,939.11 -130.14,939.11"
     inkscape:connector-curvature="0" /></g><text
   transform="scale(1,-1)"
   sodipodi:linespacing="125%"
   id="text9750"
   y="-3867.2766"
   x="7065.4224"
   style="font-size:320px;font-style:normal;font-weight:normal;line-height:125%;letter-spacing:0px;word-spacing:0px;fill:#000000;fill-opacity:1;stroke:none;font-family:Sans"
   xml:space="preserve"><tspan
     y="-3867.2766"
     x="7065.4224"
     id="tspan9752"
     sodipodi:role="line">B</tspan></text>


<rect
   style="fill:none;stroke:#000000;stroke-width:16;stroke-linecap:round;stroke-miterlimit:4;stroke-opacity:1;stroke-dasharray:none;stroke-dashoffset:0"
   id="rect9754"
   width="2337.0479"
   height="324.94077"
   x="6008.4458"
   y="-4139.5215"
   transform="scale(1,-1)" /><text
   xml:space="preserve"
   style="font-size:320px;font-style:normal;font-weight:normal;line-height:125%;letter-spacing:0px;word-spacing:0px;fill:#000000;fill-opacity:1;stroke:none;font-family:Sans"
   x="9465.4219"
   y="-3867.2766"
   id="text9756"
   sodipodi:linespacing="125%"
   transform="scale(1,-1)"><tspan
     sodipodi:role="line"
     id="tspan9758"
     x="9465.4219"
     y="-3867.2766">B</tspan></text>


<rect
   transform="scale(1,-1)"
   y="-4139.5215"
   x="8408.4453"
   height="324.94077"
   width="2337.0479"
   id="rect9760"
   style="fill:none;stroke:#000000;stroke-width:16;stroke-linecap:round;stroke-miterlimit:4;stroke-opacity:1;stroke-dasharray:none;stroke-dashoffset:0" /><g
   style="fill:#000000;fill-opacity:1"
   id="g9780"
   inkscape:label="ink_ext_XXXXXX"
   transform="matrix(10,0,0,10,10192.093,6650.8737)"><g
     style="fill:#000000;fill-opacity:1"
     id="g9782"
     transform="scale(0.1,0.1)"><g
       transform="translate(0,-832)"
       id="g9784"><path
         sodipodi:type="arc"
         style="fill:#ffffff;fill-opacity:1;stroke:none"
         id="path9786"
         sodipodi:cx="590.8349"
         sodipodi:cy="62.090687"
         sodipodi:rx="82.527"
         sodipodi:ry="63.53849"
         d="m 673.3619,62.090687 c 0,35.091339 -36.9486,63.538493 -82.527,63.538493 -45.5784,0 -82.527,-28.447154 -82.527,-63.538493 0,-35.091339 36.9486,-63.5384905 82.527,-63.5384905 45.5784,0 82.527,28.4471515 82.527,63.5384905 z"
         transform="matrix(8.2477876,0,0,-8,-4086.9439,1149.1263)" /><g
         id="g9788"
         style="fill:#000000;fill-opacity:1"
         transform="translate(37.182203,-108.37288)"><g
           clip-path="url(#clipPath8758)"
           id="g9790"
           style="fill:#000000;fill-opacity:1"><path
             id="path9792"
             style="fill:#000000;fill-opacity:1;fill-rule:nonzero;stroke:none"
             d="m 751.328,1227.97 c -296.879,0 -643.598,-121.53 -643.598,-464.072 0,-145.539 66.411,-265.968 192.04,-348.359 20.929,-13.668 29.64,-40 21.089,-63.469 -23.238,-63.711 -58.589,-140.941 -110.16,-210.32 143.281,35.98 245,103.559 310.352,161.25 12.308,10.898 28.91,15.551 45.078,12.66 59.101,-10.512 121.41,-15.82 185.199,-15.82 296.912,0 643.632,121.519 643.632,464.058 0,342.542 -346.72,464.072 -643.632,464.072 M 53.8281,10 C 30.7383,10 10.0391,24.8008 2.73047,46.9883 -4.92188,70.1484 3.94922,95.5781 24.3789,108.941 95.2695,155.352 158.52,240.43 204.73,350.859 70.5898,452.891 0,594.801 0,763.898 0,1105.9 301.949,1335.7 751.328,1335.7 c 449.412,0 751.372,-229.8 751.372,-571.802 0,-342.027 -301.96,-571.789 -751.372,-571.789 -61.098,0 -121.058,4.45 -178.707,13.321 C 469.961,120.5 301.559,24.1797 56.9492,10.0781 55.8984,10.0391 54.8789,10 53.8281,10"
             inkscape:connector-curvature="0" /></g></g></g></g></g><text
   transform="scale(1,-1)"
   sodipodi:linespacing="125%"
   id="text9794"
   y="-6575.2261"
   x="10701"
   style="font-size:320px;font-style:normal;font-weight:normal;line-height:125%;letter-spacing:0px;word-spacing:0px;fill:#000000;fill-opacity:1;stroke:none;font-family:Sans"
   xml:space="preserve"><tspan
     id="tspan9796"
     style="font-size:240px;font-weight:normal;-inkscape-font-specification:Sans"
     y="-6575.2261"
     x="10701"
     sodipodi:role="line">blah</tspan><tspan
     style="font-size:240px;font-weight:normal;-inkscape-font-specification:Sans"
     y="-6275.2261"
     x="10701"
     sodipodi:role="line"
     id="tspan9798">blah</tspan></text>


<text
   xml:space="preserve"
   style="font-size:160px;font-style:normal;font-weight:normal;line-height:125%;letter-spacing:0px;word-spacing:0px;fill:#000000;fill-opacity:1;stroke:none;font-family:Sans"
   x="8486.3672"
   y="-4290.2524"
   id="text9800"
   sodipodi:linespacing="125%"
   transform="scale(1,-1)"><tspan
     sodipodi:role="line"
     id="tspan9802"
     x="8486.3672"
     y="-4290.2524"
     style="font-size:160px">shot #4</tspan></text>


<path
   sodipodi:nodetypes="cc"
   style="fill:none;stroke:#000000;stroke-width:16;stroke-linecap:butt;stroke-linejoin:miter;stroke-miterlimit:4;stroke-opacity:1;stroke-dasharray:16, 16;stroke-dashoffset:0;marker-start:url(#DotL);marker-mid:none;marker-end:url(#DotL)"
   d="m 3793.1852,3970.0819 c -368.0347,277.4691 -563.454,425.4277 -668.5708,743.7952"
   id="path11000"
   inkscape:connector-curvature="0" /><path
   inkscape:connector-curvature="0"
   id="path11002"
   d="M 6188.2348,3961.8192 C 5448.2201,5263.6943 5328.5254,5607.9965 5143.5595,6477.5178"
   style="fill:none;stroke:#000000;stroke-width:16;stroke-linecap:butt;stroke-linejoin:miter;stroke-miterlimit:4;stroke-opacity:1;stroke-dasharray:16, 16;stroke-dashoffset:0;marker-start:url(#DotL);marker-mid:none;marker-end:url(#DotL)"
   sodipodi:nodetypes="cc" /><path
   sodipodi:nodetypes="cc"
   style="fill:none;stroke:#000000;stroke-width:16;stroke-linecap:butt;stroke-linejoin:miter;stroke-miterlimit:4;stroke-opacity:1;stroke-dasharray:16, 16;stroke-dashoffset:0;marker-start:url(#DotL);marker-mid:none;marker-end:url(#DotL)"
   d="M 8623.2906,3970.0819 C 6586.5472,4161.2889 5958.8776,5595.1705 5137.3991,6481.6492"
   id="path11004"
   inkscape:connector-curvature="0" /><path
   sodipodi:nodetypes="cc"
   style="fill:none;stroke:#000000;stroke-width:16;stroke-linecap:butt;stroke-linejoin:miter;stroke-miterlimit:4;stroke-opacity:1;stroke-dasharray:16, 16;stroke-dashoffset:0;marker-start:url(#DotL);marker-mid:none;marker-end:url(#DotL)"
   d="m 12299.301,3732.4946 1017.206,-1.376"
   id="path11192"
   inkscape:connector-curvature="0" /><text
   transform="scale(1,-1)"
   sodipodi:linespacing="125%"
   id="text11220"
   y="-4268.0967"
   x="12274.674"
   style="font-size:320px;font-style:normal;font-weight:normal;line-height:125%;letter-spacing:0px;word-spacing:0px;fill:#000000;fill-opacity:1;stroke:none;font-family:Sans"
   xml:space="preserve"><tspan
     style="font-size:160px"
     y="-4268.0967"
     x="12274.674"
     id="tspan11222"
     sodipodi:role="line">speaking face</tspan></text>


<text
   xml:space="preserve"
   style="font-size:320px;font-style:normal;font-weight:normal;line-height:125%;letter-spacing:0px;word-spacing:0px;fill:#000000;fill-opacity:1;stroke:none;font-family:Sans"
   x="12434.674"
   y="-3836.0967"
   id="text11224"
   sodipodi:linespacing="125%"
   transform="scale(1,-1)"><tspan
     sodipodi:role="line"
     id="tspan11226"
     x="12434.674"
     y="-3836.0967"
     style="font-size:160px">evidence</tspan></text>


<text
   xml:space="preserve"
   style="font-size:320px;font-style:normal;font-weight:normal;line-height:125%;letter-spacing:0px;word-spacing:0px;fill:#000000;fill-opacity:1;stroke:none;font-family:Sans"
   x="8965.9141"
   y="-5512.9014"
   id="text11228"
   sodipodi:linespacing="125%"
   transform="scale(1,-1)"><tspan
     sodipodi:role="line"
     id="tspan11230"
     x="8965.9141"
     y="-5512.9014"
     style="font-size:240px;font-weight:bold">A</tspan></text>


<text
   transform="scale(1,-1)"
   sodipodi:linespacing="125%"
   id="text11232"
   y="-5512.9014"
   x="10021.914"
   style="font-size:320px;font-style:normal;font-weight:normal;line-height:125%;letter-spacing:0px;word-spacing:0px;fill:#000000;fill-opacity:1;stroke:none;font-family:Sans"
   xml:space="preserve"><tspan
     style="font-size:240px;font-weight:bold"
     y="-5512.9014"
     x="10021.914"
     id="tspan11234"
     sodipodi:role="line">B</tspan></text>


<g
   transform="matrix(10,0,0,10,9056.0932,6650.8737)"
   inkscape:label="ink_ext_XXXXXX"
   id="g3114"
   style="fill:#000000;fill-opacity:1"><g
     transform="scale(0.1,0.1)"
     id="g3116"
     style="fill:#000000;fill-opacity:1"><g
       id="g3118"
       transform="translate(0,-832)"><path
         transform="matrix(8.2477876,0,0,-8,-4086.9439,1149.1263)"
         d="m 673.3619,62.090687 c 0,35.091339 -36.9486,63.538493 -82.527,63.538493 -45.5784,0 -82.527,-28.447154 -82.527,-63.538493 0,-35.091339 36.9486,-63.5384905 82.527,-63.5384905 45.5784,0 82.527,28.4471515 82.527,63.5384905 z"
         sodipodi:ry="63.53849"
         sodipodi:rx="82.527"
         sodipodi:cy="62.090687"
         sodipodi:cx="590.8349"
         id="path3120"
         style="fill:#ffffff;fill-opacity:1;stroke:none"
         sodipodi:type="arc" /><g
         transform="translate(37.182203,-108.37288)"
         style="fill:#000000;fill-opacity:1"
         id="g3122"><g
           style="fill:#000000;fill-opacity:1"
           id="g3124"
           clip-path="url(#clipPath8758)"><path
             inkscape:connector-curvature="0"
             d="m 751.328,1227.97 c -296.879,0 -643.598,-121.53 -643.598,-464.072 0,-145.539 66.411,-265.968 192.04,-348.359 20.929,-13.668 29.64,-40 21.089,-63.469 -23.238,-63.711 -58.589,-140.941 -110.16,-210.32 143.281,35.98 245,103.559 310.352,161.25 12.308,10.898 28.91,15.551 45.078,12.66 59.101,-10.512 121.41,-15.82 185.199,-15.82 296.912,0 643.632,121.519 643.632,464.058 0,342.542 -346.72,464.072 -643.632,464.072 M 53.8281,10 C 30.7383,10 10.0391,24.8008 2.73047,46.9883 -4.92188,70.1484 3.94922,95.5781 24.3789,108.941 95.2695,155.352 158.52,240.43 204.73,350.859 70.5898,452.891 0,594.801 0,763.898 0,1105.9 301.949,1335.7 751.328,1335.7 c 449.412,0 751.372,-229.8 751.372,-571.802 0,-342.027 -301.96,-571.789 -751.372,-571.789 -61.098,0 -121.058,4.45 -178.707,13.321 C 469.961,120.5 301.559,24.1797 56.9492,10.0781 55.8984,10.0391 54.8789,10 53.8281,10"
             style="fill:#000000;fill-opacity:1;fill-rule:nonzero;stroke:none"
             id="path3126" /></g></g></g></g></g><text
   xml:space="preserve"
   style="font-size:320px;font-style:normal;font-weight:normal;line-height:125%;letter-spacing:0px;word-spacing:0px;fill:#000000;fill-opacity:1;stroke:none;font-family:Sans"
   x="9581"
   y="-6575.2261"
   id="text3128"
   sodipodi:linespacing="125%"
   transform="scale(1,-1)"><tspan
     sodipodi:role="line"
     x="9581"
     y="-6575.2261"
     style="font-size:240px;font-weight:normal;-inkscape-font-specification:Sans"
     id="tspan3130">blah</tspan><tspan
     id="tspan3132"
     sodipodi:role="line"
     x="9581"
     y="-6275.2261"
     style="font-size:240px;font-weight:normal;-inkscape-font-specification:Sans">blah</tspan></text>


<text
   transform="scale(1,-1)"
   sodipodi:linespacing="125%"
   id="text3134"
   y="-3467.2766"
   x="9465.4219"
   style="font-size:320px;font-style:normal;font-weight:normal;line-height:125%;letter-spacing:0px;word-spacing:0px;fill:#000000;fill-opacity:1;stroke:none;font-family:Sans"
   xml:space="preserve"><tspan
     y="-3467.2766"
     x="9465.4219"
     id="tspan3136"
     sodipodi:role="line">A</tspan></text>


<rect
   style="fill:none;stroke:#000000;stroke-width:16;stroke-linecap:round;stroke-miterlimit:4;stroke-opacity:1;stroke-dasharray:none;stroke-dashoffset:0"
   id="rect3138"
   width="2337.0479"
   height="324.94077"
   x="8408.4453"
   y="-3739.5215"
   transform="scale(1,-1)" /><path
   inkscape:connector-curvature="0"
   id="path3140"
   d="M 8625.1852,3556.979 C 4623.4033,3601.8176 3087.1824,3015.371 3122.928,4710.4873"
   style="fill:none;stroke:#000000;stroke-width:16;stroke-linecap:butt;stroke-linejoin:miter;stroke-miterlimit:4;stroke-opacity:1;stroke-dasharray:16, 16;stroke-dashoffset:0;marker-start:url(#DotL);marker-mid:none;marker-end:url(#DotL)"
   sodipodi:nodetypes="cc" /><rect
   transform="scale(1,-1)"
   y="-5038.0049"
   x="12233.465"
   height="324.94077"
   width="1193.7618"
   id="rect3142"
   style="fill:#cccccc;stroke:#000000;stroke-width:16;stroke-linecap:round;stroke-miterlimit:4;stroke-opacity:1;stroke-dasharray:none;stroke-dashoffset:0" /><text
   transform="scale(1,-1)"
   sodipodi:linespacing="125%"
   id="text3144"
   y="-4829.7598"
   x="12338.838"
   style="font-size:320px;font-style:normal;font-weight:normal;line-height:125%;letter-spacing:0px;word-spacing:0px;fill:#000000;fill-opacity:1;stroke:none;font-family:Sans"
   xml:space="preserve"><tspan
     style="font-size:160px"
     y="-4829.7598"
     x="12338.838"
     id="tspan3146"
     sodipodi:role="line">text overlay</tspan></text>


<g
   style="fill:#000000;fill-opacity:1"
   id="g3938"
   inkscape:label="ink_ext_XXXXXX"
   transform="matrix(7.1957257,0,0,6.6966604,12298.52,5757.4637)"><g
     style="fill:#000000;fill-opacity:1"
     id="g3940"
     transform="scale(0.1,0.1)"><g
       transform="translate(0,-832)"
       id="g3942"><path
         sodipodi:type="arc"
         style="fill:#ffffff;fill-opacity:1;stroke:none"
         id="path3944"
         sodipodi:cx="590.8349"
         sodipodi:cy="62.090687"
         sodipodi:rx="82.527"
         sodipodi:ry="63.53849"
         d="m 673.3619,62.090687 c 0,35.091339 -36.9486,63.538493 -82.527,63.538493 -45.5784,0 -82.527,-28.447154 -82.527,-63.538493 0,-35.091339 36.9486,-63.5384905 82.527,-63.5384905 45.5784,0 82.527,28.4471515 82.527,63.5384905 z"
         transform="matrix(8.2477876,0,0,-8,-4086.9439,1149.1263)" /><g
         id="g3946"
         style="fill:#000000;fill-opacity:1"
         transform="translate(37.182203,-108.37288)"><g
           clip-path="url(#clipPath8758)"
           id="g3948"
           style="fill:#000000;fill-opacity:1"><path
             id="path3950"
             style="fill:#000000;fill-opacity:1;fill-rule:nonzero;stroke:none"
             d="m 751.328,1227.97 c -296.879,0 -643.598,-121.53 -643.598,-464.072 0,-145.539 66.411,-265.968 192.04,-348.359 20.929,-13.668 29.64,-40 21.089,-63.469 -23.238,-63.711 -58.589,-140.941 -110.16,-210.32 143.281,35.98 245,103.559 310.352,161.25 12.308,10.898 28.91,15.551 45.078,12.66 59.101,-10.512 121.41,-15.82 185.199,-15.82 296.912,0 643.632,121.519 643.632,464.058 0,342.542 -346.72,464.072 -643.632,464.072 M 53.8281,10 C 30.7383,10 10.0391,24.8008 2.73047,46.9883 -4.92188,70.1484 3.94922,95.5781 24.3789,108.941 95.2695,155.352 158.52,240.43 204.73,350.859 70.5898,452.891 0,594.801 0,763.898 0,1105.9 301.949,1335.7 751.328,1335.7 c 449.412,0 751.372,-229.8 751.372,-571.802 0,-342.027 -301.96,-571.789 -751.372,-571.789 -61.098,0 -121.058,4.45 -178.707,13.321 C 469.961,120.5 301.559,24.1797 56.9492,10.0781 55.8984,10.0391 54.8789,10 53.8281,10"
             inkscape:connector-curvature="0" /></g></g></g></g></g><text
   xml:space="preserve"
   style="font-size:320px;font-style:normal;font-weight:normal;text-align:center;line-height:125%;letter-spacing:0px;word-spacing:0px;text-anchor:middle;fill:#000000;fill-opacity:1;stroke:none;font-family:Sans"
   x="12837.312"
   y="-5691.2764"
   id="text3962"
   sodipodi:linespacing="125%"
   transform="scale(1,-1)"><tspan
     sodipodi:role="line"
     id="tspan3964"
     x="12837.312"
     y="-5691.2764"
     style="font-size:160px;text-align:center;text-anchor:middle">speech</tspan><tspan
     id="tspan3966"
     sodipodi:role="line"
     x="12837.312"
     y="-5491.2764"
     style="font-size:160px;text-align:center;text-anchor:middle">transcript</tspan></text>


<text
   transform="scale(1,-1)"
   sodipodi:linespacing="125%"
   id="text3968"
   y="-5216.3716"
   x="11143.853"
   style="font-size:320px;font-style:normal;font-weight:normal;line-height:125%;letter-spacing:0px;word-spacing:0px;fill:#000000;fill-opacity:1;stroke:none;font-family:Sans"
   xml:space="preserve"><tspan
     style="font-size:192px;fill:#000000"
     y="-5216.3716"
     x="11143.853"
     id="tspan3970"
     sodipodi:role="line">INPUT</tspan></text>



<text
   xml:space="preserve"
   style="font-size:320px;font-style:normal;font-weight:normal;line-height:125%;letter-spacing:0px;word-spacing:0px;fill:#000000;fill-opacity:1;stroke:none;font-family:Sans"
   x="11031.501"
   y="-3703.0732"
   id="text4130"
   sodipodi:linespacing="125%"
   transform="scale(1,-1)"><tspan
     sodipodi:role="line"
     id="tspan4132"
     x="11031.501"
     y="-3703.0732"
     style="font-size:192px;font-style:normal;font-variant:normal;font-weight:normal;font-stretch:normal;text-align:start;line-height:125%;writing-mode:lr-tb;text-anchor:start;fill:#000000;font-family:Sans;-inkscape-font-specification:Sans">OUTPUT</tspan></text>


<path
   style="fill:none;stroke:#000000;stroke-width:2;stroke-linecap:butt;stroke-linejoin:miter;stroke-opacity:1;stroke-miterlimit:4;stroke-dasharray:none"
   d="m 1475.9269,14.71205 0,457.54767"
   id="path6735"
   inkscape:connector-curvature="0"
   transform="matrix(8,0,0,-8,247.59922,7142.2008)" /><text
   xml:space="preserve"
   style="font-size:320px;font-style:normal;font-weight:normal;line-height:125%;letter-spacing:0px;word-spacing:0px;fill:#000000;fill-opacity:1;stroke:none;font-family:Sans"
   x="12482.838"
   y="-6653.7598"
   id="text6737"
   sodipodi:linespacing="125%"
   transform="scale(1,-1)"><tspan
     sodipodi:role="line"
     id="tspan6739"
     x="12482.838"
     y="-6653.7598"
     style="font-size:160px">LEGEND</tspan></text>
<path
   inkscape:connector-curvature="0"
   id="path6741"
   d="m 13430.944,6362.3137 -1270.12,0"
   style="fill:none;stroke:#000000;stroke-width:9.42495251;stroke-linecap:butt;stroke-linejoin:miter;stroke-miterlimit:4;stroke-opacity:1;stroke-dasharray:none" /></g></g></g></svg>